<?xml version="1.0" encoding="UTF-8" standalone="no"?>
<!DOCTYPE svg PUBLIC "-//W3C//DTD SVG 1.1//EN"
 "http://www.w3.org/Graphics/SVG/1.1/DTD/svg11.dtd">
<!-- Generated by graphviz version 2.40.1 (20161225.0304)
 -->
<!-- Title: controllers_diagram Pages: 1 -->
<svg width="437pt" height="356pt"
 viewBox="0.00 0.00 436.64 356.00" xmlns="http://www.w3.org/2000/svg" xmlns:xlink="http://www.w3.org/1999/xlink">
<g id="graph0" class="graph" transform="scale(1 1) rotate(0) translate(4 352)">
<title>controllers_diagram</title>
<polygon fill="transparent" stroke="transparent" points="-4,4 -4,-352 432.6416,-352 432.6416,4 -4,4"/>
<!-- _diagram_info -->
<g id="node1" class="node">
<title>_diagram_info</title>
<text text-anchor="start" x="8" y="-296.6" font-family="Times,serif" font-size="13.00" fill="#000000">Controllers diagram</text>
<text text-anchor="start" x="8" y="-283.6" font-family="Times,serif" font-size="13.00" fill="#000000">Date: Mar 13 2017 &#45; 18:56</text>
<text text-anchor="start" x="8" y="-270.6" font-family="Times,serif" font-size="13.00" fill="#000000">Migration version: 20170312214328</text>
<text text-anchor="start" x="8" y="-257.6" font-family="Times,serif" font-size="13.00" fill="#000000">Generated by RailRoady 1.5.2</text>
<text text-anchor="start" x="8" y="-244.6" font-family="Times,serif" font-size="13.00" fill="#000000">http://railroady.prestonlee.com</text>
</g>
<!-- ApplicationController -->
<g id="node2" class="node">
<title>ApplicationController</title>
<path fill="none" stroke="#000000" d="M301,-255.5C301,-255.5 416.6416,-255.5 416.6416,-255.5 422.6416,-255.5 428.6416,-261.5 428.6416,-267.5 428.6416,-267.5 428.6416,-335.5 428.6416,-335.5 428.6416,-341.5 422.6416,-347.5 416.6416,-347.5 416.6416,-347.5 301,-347.5 301,-347.5 295,-347.5 289,-341.5 289,-335.5 289,-335.5 289,-267.5 289,-267.5 289,-261.5 295,-255.5 301,-255.5"/>
<text text-anchor="middle" x="358.8208" y="-332.3" font-family="Times,serif" font-size="14.00" fill="#000000">ApplicationController</text>
<polyline fill="none" stroke="#000000" points="289,-325.5 428.6416,-325.5 "/>
<polyline fill="none" stroke="#000000" points="289,-301.5 428.6416,-301.5 "/>
<polyline fill="none" stroke="#000000" points="289,-277.5 428.6416,-277.5 "/>
<text text-anchor="start" x="297" y="-262.3" font-family="Times,serif" font-size="14.00" fill="#000000">_layout</text>
</g>
<!-- CommentsController -->
<g id="node3" class="node">
<title>CommentsController</title>
<path fill="none" stroke="#000000" d="M80,-.5C80,-.5 190.2139,-.5 190.2139,-.5 196.2139,-.5 202.2139,-6.5 202.2139,-12.5 202.2139,-12.5 202.2139,-190.5 202.2139,-190.5 202.2139,-196.5 196.2139,-202.5 190.2139,-202.5 190.2139,-202.5 80,-202.5 80,-202.5 74,-202.5 68,-196.5 68,-190.5 68,-190.5 68,-12.5 68,-12.5 68,-6.5 74,-.5 80,-.5"/>
<text text-anchor="middle" x="135.1069" y="-187.3" font-family="Times,serif" font-size="14.00" fill="#000000">CommentsController</text>
<polyline fill="none" stroke="#000000" points="68,-180.5 202.2139,-180.5 "/>
<text text-anchor="start" x="76" y="-165.3" font-family="Times,serif" font-size="14.00" fill="#000000">index</text>
<text text-anchor="start" x="76" y="-151.3" font-family="Times,serif" font-size="14.00" fill="#000000">destroy</text>
<text text-anchor="start" x="76" y="-137.3" font-family="Times,serif" font-size="14.00" fill="#000000">edit</text>
<text text-anchor="start" x="76" y="-123.3" font-family="Times,serif" font-size="14.00" fill="#000000">create</text>
<text text-anchor="start" x="76" y="-109.3" font-family="Times,serif" font-size="14.00" fill="#000000">new</text>
<text text-anchor="start" x="76" y="-95.3" font-family="Times,serif" font-size="14.00" fill="#000000">show</text>
<text text-anchor="start" x="76" y="-81.3" font-family="Times,serif" font-size="14.00" fill="#000000">update</text>
<polyline fill="none" stroke="#000000" points="68,-74.5 202.2139,-74.5 "/>
<polyline fill="none" stroke="#000000" points="68,-50.5 202.2139,-50.5 "/>
<text text-anchor="start" x="76" y="-35.3" font-family="Times,serif" font-size="14.00" fill="#000000">_layout</text>
<text text-anchor="start" x="76" y="-21.3" font-family="Times,serif" font-size="14.00" fill="#000000">comment_params</text>
<text text-anchor="start" x="76" y="-7.3" font-family="Times,serif" font-size="14.00" fill="#000000">set_comment</text>
</g>
<!-- FeedsController -->
<g id="node4" class="node">
<title>FeedsController</title>
<path fill="none" stroke="#000000" d="M250,-.5C250,-.5 332.207,-.5 332.207,-.5 338.207,-.5 344.207,-6.5 344.207,-12.5 344.207,-12.5 344.207,-204.5 344.207,-204.5 344.207,-210.5 338.207,-216.5 332.207,-216.5 332.207,-216.5 250,-216.5 250,-216.5 244,-216.5 238,-210.5 238,-204.5 238,-204.5 238,-12.5 238,-12.5 238,-6.5 244,-.5 250,-.5"/>
<text text-anchor="middle" x="291.1035" y="-201.3" font-family="Times,serif" font-size="14.00" fill="#000000">FeedsController</text>
<polyline fill="none" stroke="#000000" points="238,-194.5 344.207,-194.5 "/>
<text text-anchor="start" x="246" y="-179.3" font-family="Times,serif" font-size="14.00" fill="#000000">update</text>
<text text-anchor="start" x="246" y="-165.3" font-family="Times,serif" font-size="14.00" fill="#000000">destroy</text>
<text text-anchor="start" x="246" y="-151.3" font-family="Times,serif" font-size="14.00" fill="#000000">edit</text>
<text text-anchor="start" x="246" y="-137.3" font-family="Times,serif" font-size="14.00" fill="#000000">home_ad</text>
<text text-anchor="start" x="246" y="-123.3" font-family="Times,serif" font-size="14.00" fill="#000000">index</text>
<text text-anchor="start" x="246" y="-109.3" font-family="Times,serif" font-size="14.00" fill="#000000">new</text>
<text text-anchor="start" x="246" y="-95.3" font-family="Times,serif" font-size="14.00" fill="#000000">show</text>
<text text-anchor="start" x="246" y="-81.3" font-family="Times,serif" font-size="14.00" fill="#000000">create</text>
<polyline fill="none" stroke="#000000" points="238,-74.5 344.207,-74.5 "/>
<polyline fill="none" stroke="#000000" points="238,-50.5 344.207,-50.5 "/>
<text text-anchor="start" x="246" y="-35.3" font-family="Times,serif" font-size="14.00" fill="#000000">_layout</text>
<text text-anchor="start" x="246" y="-21.3" font-family="Times,serif" font-size="14.00" fill="#000000">feed_params</text>
<text text-anchor="start" x="246" y="-7.3" font-family="Times,serif" font-size="14.00" fill="#000000">set_feed</text>
</g>
</g>
</svg>
