<?xml version="1.0" encoding="UTF-8" standalone="no"?>
<!DOCTYPE svg PUBLIC "-//W3C//DTD SVG 1.1//EN"
 "http://www.w3.org/Graphics/SVG/1.1/DTD/svg11.dtd">
<!-- Generated by graphviz version 2.40.1 (20161225.0304)
 -->
<!-- Title: models_diagram Pages: 1 -->
<svg width="479pt" height="153pt"
 viewBox="0.00 0.00 478.68 153.00" xmlns="http://www.w3.org/2000/svg" xmlns:xlink="http://www.w3.org/1999/xlink">
<g id="graph0" class="graph" transform="scale(1 1) rotate(0) translate(4 149)">
<title>models_diagram</title>
<polygon fill="transparent" stroke="transparent" points="-4,4 -4,-149 474.6762,-149 474.6762,4 -4,4"/>
<!-- _diagram_info -->
<g id="node1" class="node">
<title>_diagram_info</title>
<text text-anchor="start" x="8" y="-130.6" font-family="Times,serif" font-size="13.00" fill="#000000">Models diagram</text>
<text text-anchor="start" x="8" y="-117.6" font-family="Times,serif" font-size="13.00" fill="#000000">Date: Mar 13 2017 &#45; 18:56</text>
<text text-anchor="start" x="8" y="-104.6" font-family="Times,serif" font-size="13.00" fill="#000000">Migration version: 20170312214328</text>
<text text-anchor="start" x="8" y="-91.6" font-family="Times,serif" font-size="13.00" fill="#000000">Generated by RailRoady 1.5.2</text>
<text text-anchor="start" x="8" y="-78.6" font-family="Times,serif" font-size="13.00" fill="#000000">http://railroady.prestonlee.com</text>
</g>
<!-- ApplicationRecord -->
<g id="node2" class="node">
<title>ApplicationRecord</title>
<ellipse fill="none" stroke="#000000" cx="302.6877" cy="-108.5" rx="77.2916" ry="18"/>
<text text-anchor="middle" x="302.6877" y="-104.3" font-family="Times,serif" font-size="14.00" fill="#000000">ApplicationRecord</text>
</g>
<!-- Comment -->
<g id="node3" class="node">
<title>Comment</title>
<ellipse fill="none" stroke="#000000" cx="425.6877" cy="-18" rx="44.9768" ry="18"/>
<text text-anchor="middle" x="425.6877" y="-13.8" font-family="Times,serif" font-size="14.00" fill="#000000">Comment</text>
</g>
<!-- Feed -->
<g id="node4" class="node">
<title>Feed</title>
<ellipse fill="none" stroke="#000000" cx="425.6877" cy="-108.5" rx="27.0958" ry="18"/>
<text text-anchor="middle" x="425.6877" y="-104.3" font-family="Times,serif" font-size="14.00" fill="#000000">Feed</text>
</g>
<!-- Feed&#45;&gt;Comment -->
<g id="edge1" class="edge">
<title>Feed&#45;&gt;Comment</title>
<path fill="none" stroke="#0c7187" d="M425.6877,-81.9687C425.6877,-70.8402 425.6877,-57.878 425.6877,-46.5429"/>
<ellipse fill="none" stroke="#0c7187" cx="425.6878" cy="-86.186" rx="4" ry="4"/>
<polygon fill="#0c7187" stroke="#0c7187" points="425.6878,-46.2868 430.1877,-36.2867 425.6878,-41.2868 425.6877,-36.2868 425.6877,-36.2868 425.6877,-36.2868 425.6878,-41.2868 421.1877,-36.2868 425.6878,-46.2868 425.6878,-46.2868"/>
</g>
</g>
</svg>
